# xmcd CD Database Entry
#
# Track frame offsets:
# 150
# 19213
# 37128
# 54413
# 70769
# 89819
# 110638
# 126994
# 145924
# 159801
# 182526
# 200818
#
# Disc length: 3046 seconds
#
# Revision: 1
# Processed by: cddbd v1.4PL0 Copyright (c) Steve Scherf et al.
# Submitted via: tcd 2.0b
#
DISCID=b00be40c
DTITLE=Desconocido - Desconocido
DYEAR=1900
DGENRE=
TTITLE0=Pista 1
TTITLE1=Pista 2
TTITLE2=Pista 3
TTITLE3=Pista 4
TTITLE4=Pista 5
TTITLE5=Pista 6
TTITLE6=Pista 7
TTITLE7=Pista 8
TTITLE8=Pista 9
TTITLE9=Pista 10
TTITLE10=Pista 11
TTITLE11=Pista 12
EXTD=nelly furtado
EXTT0=
EXTT1=
EXTT2=
EXTT3=
EXTT4=
EXTT5=
EXTT6=
EXTT7=
EXTT8=
EXTT9=
EXTT10=
EXTT11=
PLAYORDER=
